# xmcd CD database file
#
# Track frame offsets:
#	150
#	12827
#	25665
#	39297
#	53812
#	66625
#	81192
#	96107
#	111595
#	125470
#	139900
#	156315
#	171427
#	185137
#	199192
#	213312
#	226210
#	243857
#	257665
#	270697
#
# Disc length: 3799 seconds
#
# Revision: 0
# Processed by: cddbd v1.5.1PL0 Copyright (c) Steve Scherf et al.
# Submitted via: CDex 1.51
#
DISCID=220ed514
DTITLE=British Dance Bands Vol. 2 - Original 1928-1940 Recordings
DYEAR=1900
DGENRE=Jazz
TTITLE0=Fred Elizade and His Hot Music - Arkansas
TTITLE1=George Elrick and His Music Makers - I Love to Whistle
TTITLE2=Len Fillis and His Hawaiian Orchestra - By the Lazy Lagoon
TTITLE3=Bert Firman and His Orchestra - Don't Play with Fire
TTITLE4=George Fisher's Rhythm Band - A Room with a View
TTITLE5=The Four Bright Sparks - At Last I'm in Love
TTITLE6=Roy Fox and His Band - Moon
TTITLE7=Roy Fox and His Band - It's Been So Long
TTITLE8=Ben Frankel and His Orchestra - If It's the Last Thing I Do
TTITLE9=Geraldo and His Rhumba Orchestra - The Rhythm of the Rhumba
TTITLE10=Geraldo and His Orchestra - Small Fry
TTITLE11=Carrol Gibbons and The Savoy Hotel Orpheans - Let's Stop the Clock
TTITLE12=Carrol Gibbons and His Boy Friends - I'll Never Be the Same
TTITLE13=Nat Gonella and His New Orpheans - I Got Rhythm
TTITLE14=Phil Green and His Orchestra - Every Night at Eight - I'm in the Mood for Love - Take It Easy
TTITLE15=Jack Grose and His Metropole Players - A Bungalow, A Piccolo and You
TTITLE16=Eddie Gross-Bart and His Café Anglais Band - I Found You
TTITLE17=Henry Hall and His Gleneagles Hotel Band - Have You Forgotten
TTITLE18=Henry Hall and His Orchestra - (Gotta Get Some) Shut Eye
TTITLE19=Jack Harris and His Orchestra - The Gypsy in My Soul
EXTD=
EXTT0=
EXTT1=
EXTT2=
EXTT3=
EXTT4=
EXTT5=
EXTT6=
EXTT7=
EXTT8=
EXTT9=
EXTT10=
EXTT11=
EXTT12=
EXTT13=
EXTT14=
EXTT15=
EXTT16=
EXTT17=
EXTT18=
EXTT19=
PLAYORDER=
